<?xml version="1.0" encoding="UTF-8"?><svg id="Layer_2" xmlns="http://www.w3.org/2000/svg" xmlns:xlink="http://www.w3.org/1999/xlink" viewBox="0 0 72 72"><defs><style>.cls-1{fill:#98a4b6;}.cls-2{fill:#2a4359;}.cls-3{fill:url(#linear-gradient);}</style><linearGradient id="linear-gradient" x1="36" y1="0" x2="36" y2="43.88" gradientUnits="userSpaceOnUse"><stop offset=".15" stop-color="#98a4b6"/><stop offset=".24" stop-color="#7e8da0"/><stop offset=".37" stop-color="#5f7286"/><stop offset=".5" stop-color="#485d72"/><stop offset=".65" stop-color="#374e64"/><stop offset=".8" stop-color="#2d455b"/><stop offset="1" stop-color="#2a4359"/></linearGradient></defs><g id="Layer_2-2"><rect class="cls-1" width="72" height="72" rx="7.2" ry="7.2"/></g><g id="Layer_5"><path class="cls-3" d="M40.66,28.68V0h-9.31v28.68l-3.43-3.21c-2.92-2.74-7.7-.66-7.7,3.34h0c0,1.27.53,2.48,1.45,3.34l11.21,10.48c1.76,1.65,4.49,1.65,6.25,0l11.21-10.48c.93-.87,1.45-2.08,1.45-3.34h0c0-4-4.78-6.08-7.7-3.34l-3.43,3.21Z"/></g><g id="Layer_3"><path class="cls-2" d="M45.16,49l-4.13,4.03c-2.8,2.73-7.26,2.73-10.06,0l-4.13-4.03c-3.36-3.28-7.88-5.12-12.57-5.12H0v20.92c0,3.98,3.22,7.2,7.2,7.2h57.6c3.98,0,7.2-3.22,7.2-7.2v-20.92h-14.27c-4.7,0-9.21,1.84-12.57,5.12Z"/></g></svg>