<?xml version="1.0" encoding="UTF-8"?><svg id="Layer_2" xmlns="http://www.w3.org/2000/svg" xmlns:xlink="http://www.w3.org/1999/xlink" viewBox="0 0 72 72"><defs><style>.cls-1{fill:url(#linear-gradient-2);}.cls-2{fill:#31557b;}.cls-3{fill:url(#linear-gradient-4);}.cls-4{fill:#808285;}.cls-5{fill:url(#linear-gradient-3);}.cls-6{fill:url(#linear-gradient);}</style><linearGradient id="linear-gradient" x1="36" y1=".25" x2="36" y2="71.75" gradientUnits="userSpaceOnUse"><stop offset="0" stop-color="#cccccb"/><stop offset="1" stop-color="#999"/></linearGradient><linearGradient id="linear-gradient-2" x1="57.76" y1="21.74" x2="57.76" y2="50.63" gradientUnits="userSpaceOnUse"><stop offset="0" stop-color="#124d6c"/><stop offset="1" stop-color="#002851"/></linearGradient><linearGradient id="linear-gradient-3" x1="39.83" y1="37.74" x2="39.83" y2="53.48" xlink:href="#linear-gradient-2"/><linearGradient id="linear-gradient-4" x1="39.83" y1="19.64" x2="39.83" y2="37.6" xlink:href="#linear-gradient-2"/></defs><g id="Layer_2-2"><rect class="cls-6" x=".25" y=".25" width="71.5" height="71.5" rx="5.87" ry="5.87"/><path class="cls-4" d="M65.88.5c3.1,0,5.62,2.52,5.62,5.62v59.76c0,3.1-2.52,5.62-5.62,5.62H6.12c-3.1,0-5.62-2.52-5.62-5.62V6.12C.5,3.02,3.02.5,6.12.5h59.76M65.88,0H6.12C2.74,0,0,2.74,0,6.12v59.76c0,3.38,2.74,6.12,6.12,6.12h59.76c3.38,0,6.12-2.74,6.12-6.12V6.12c0-3.38-2.74-6.12-6.12-6.12h0Z"/></g><g id="Layer_1-2"><polygon class="cls-2" points="31.01 34.85 6.28 16.54 4 14.85 4 17.69 4 23.17 4 23.89 4.58 24.32 20.53 36.13 4.58 47.94 4 48.37 4 49.1 4 54.31 4 57.15 6.28 55.46 31.01 37.15 32.56 36 31.01 34.85"/><path class="cls-1" d="M66.77,21.74l-19.26,14.26,19.76,14.64c.46-.81.72-1.75.72-2.75v-22.65c0-1.32-.46-2.54-1.23-3.49Z"/><path class="cls-5" d="M42.91,39.41c-.86.64-1.97.96-3.08.96s-2.22-.32-3.08-.96l-2.26-1.67-20.15,14.92c.85.52,1.84.82,2.91.82h45.16c1.06,0,2.06-.3,2.91-.82l-20.15-14.92-2.26,1.67Z"/><path class="cls-3" d="M36.84,36l1.57,1.16c.78.58,2.05.58,2.83,0l1.57-1.16,2.35-1.74,19.24-14.25c-.62-.24-1.3-.37-2-.37H17.25c-.7,0-1.38.13-2,.37l19.25,14.25,2.35,1.74Z"/></g></svg>