<?xml version="1.0" encoding="UTF-8"?><svg id="Layer_2" xmlns="http://www.w3.org/2000/svg" xmlns:xlink="http://www.w3.org/1999/xlink" viewBox="0 0 69.87 46.18"><defs><style>.cls-1{fill:url(#linear-gradient-2);}.cls-2{fill:#31557b;}.cls-3{fill:url(#linear-gradient-3);}.cls-4{fill:url(#linear-gradient);}</style><linearGradient id="linear-gradient" x1="58.69" y1="7.53" x2="58.69" y2="39.07" gradientUnits="userSpaceOnUse"><stop offset="0" stop-color="#124d6c"/><stop offset="1" stop-color="#002851"/></linearGradient><linearGradient id="linear-gradient-2" x1="39.11" y1="24.99" x2="39.11" y2="42.17" xlink:href="#linear-gradient"/><linearGradient id="linear-gradient-3" x1="39.11" y1="5.23" x2="39.11" y2="24.83" xlink:href="#linear-gradient"/></defs><g id="Layer_1-2"><polygon class="cls-2" points="29.49 21.83 2.5 1.85 0 0 0 3.11 0 9.08 0 9.87 .63 10.34 18.05 23.24 .63 36.13 0 36.6 0 37.39 0 43.08 0 46.18 2.5 44.34 29.49 24.35 31.19 23.09 29.49 21.83"/><path class="cls-4" d="M68.53,7.53l-21.02,15.57,21.58,15.98c.5-.89.79-1.91.79-3V11.34c0-1.44-.5-2.77-1.34-3.81Z"/><path class="cls-1" d="M42.48,26.82c-.94.7-2.15,1.05-3.36,1.05s-2.42-.35-3.36-1.05l-2.46-1.83-22,16.29c.92.57,2.01.89,3.17.89h49.3c1.16,0,2.25-.32,3.17-.89l-22-16.29-2.46,1.83Z"/><path class="cls-3" d="M35.85,23.09l1.71,1.27c.85.63,2.24.63,3.09,0l1.71-1.27,2.56-1.9,21.01-15.56c-.68-.26-1.41-.4-2.18-.4H14.46c-.77,0-1.51.14-2.18.4l21.01,15.56,2.56,1.9Z"/></g></svg>